<?xml version="1.0" standalone="no"?>
<!DOCTYPE svg PUBLIC "-//W3C//DTD SVG 20010904//EN"
 "http://www.w3.org/TR/2001/REC-SVG-20010904/DTD/svg10.dtd">
<svg version="1.0" xmlns="http://www.w3.org/2000/svg"
 width="119.000000pt" height="119.000000pt" viewBox="0 0 119.000000 119.000000"
 preserveAspectRatio="xMidYMid meet">
<metadata>
Created by potrace 1.14, written by Peter Selinger 2001-2017
</metadata>
<g transform="translate(0.000000,119.000000) scale(0.100000,-0.100000)"
fill="#000000" stroke="none">
<path d="M457 1168 c-61 -21 -234 -136 -288 -190 -45 -45 -94 -142 -110 -218
-32 -148 38 -377 140 -459 16 -14 27 -30 24 -35 -3 -6 -3 -8 2 -4 4 4 27 -4
52 -17 24 -14 52 -25 61 -25 10 0 22 -4 28 -9 5 -5 27 -11 49 -13 22 -1 43 -7
47 -13 5 -6 8 -5 8 3 0 6 5 12 11 12 5 0 7 -5 3 -12 -5 -7 -3 -8 7 -2 20 12
39 14 39 3 0 -5 5 -9 11 -9 5 0 7 5 4 10 -3 6 4 10 17 11 13 1 39 2 58 3 19 1
41 5 48 10 8 4 20 2 29 -6 15 -11 16 -11 10 4 -8 23 2 23 19 1 12 -16 12 -15
8 7 -4 17 -3 21 4 12 7 -11 11 -9 15 8 3 12 10 19 16 15 6 -3 14 1 17 9 3 9
10 13 15 10 5 -3 9 0 9 5 0 6 9 11 21 11 12 0 17 4 14 11 -4 6 2 13 13 16 11
2 25 16 31 30 8 16 17 23 27 19 8 -3 13 -2 9 3 -3 5 4 26 16 46 16 26 25 33
33 25 9 -7 13 -5 13 5 0 8 -4 12 -8 9 -4 -2 -10 0 -14 6 -3 5 -1 10 4 10 6 0
11 12 11 26 0 24 2 25 18 13 15 -12 16 -12 5 2 -7 8 -12 32 -11 52 1 32 3 35
17 25 9 -7 8 -3 -4 10 -16 20 -17 26 -6 44 7 11 8 17 3 14 -7 -4 -11 23 -11
71 -1 177 -38 258 -159 347 -140 102 -264 133 -375 94z"/>
<path d="M855 279 c-4 -6 -14 -8 -24 -4 -13 5 -14 4 -3 -6 10 -11 15 -10 29 4
10 9 14 17 11 17 -4 0 -10 -5 -13 -11z"/>
<path d="M786 233 c-6 -14 -5 -15 5 -6 7 7 10 15 7 18 -3 3 -9 -2 -12 -12z"/>
<path d="M824 228 l-19 -23 23 19 c21 18 27 26 19 26 -2 0 -12 -10 -23 -22z"/>
<path d="M755 210 c-3 -5 -1 -10 4 -10 6 0 11 5 11 10 0 6 -2 10 -4 10 -3 0
-8 -4 -11 -10z"/>
<path d="M587 181 c-4 -17 -3 -21 5 -13 5 5 8 16 6 23 -3 8 -7 3 -11 -10z"/>
<path d="M616 185 c-9 -26 -7 -32 5 -12 6 10 9 21 6 23 -2 3 -7 -2 -11 -11z"/>
<path d="M675 190 c3 -5 8 -10 11 -10 2 0 4 5 4 10 0 6 -5 10 -11 10 -5 0 -7
-4 -4 -10z"/>
<path d="M636 173 c-6 -14 -5 -15 5 -6 7 7 10 15 7 18 -3 3 -9 -2 -12 -12z"/>
<path d="M576 123 c-6 -14 -5 -15 5 -6 7 7 10 15 7 18 -3 3 -9 -2 -12 -12z"/>
</g>
</svg>
