<svg xmlns="http://www.w3.org/2000/svg" viewBox="0 0 512 512" style="enable-background:new 0 0 512 512" xml:space="preserve"><path fill="#d26a22" d="M437.02 74.98C388.667 26.629 324.38 0 256 0S123.333 26.629 74.98 74.98C26.629 123.333 0 187.62 0 256s26.629 132.667 74.98 181.02C123.333 485.371 187.62 512 256 512s132.667-26.629 181.02-74.98C485.371 388.667 512 324.38 512 256s-26.629-132.667-74.98-181.02zm-10.607 351.433C380.894 471.932 320.374 497 256 497s-124.894-25.068-170.413-70.587C40.068 380.894 15 320.374 15 256S40.068 131.106 85.587 85.587C131.106 40.068 191.626 15 256 15s124.894 25.068 170.413 70.587C471.932 131.106 497 191.626 497 256s-25.068 124.894-70.587 170.413z"/><path fill="#d26a22" d="M381.447 105.366c-37.407-31.223-84.934-47.28-133.793-45.207-49.173 2.083-95.434 22.41-130.259 57.236-34.825 34.826-55.152 81.085-57.236 130.258-2.07 48.871 13.984 96.386 45.206 133.792a7.484 7.484 0 0 0 5.762 2.694 7.5 7.5 0 0 0 5.754-12.305c-28.825-34.536-43.647-78.412-41.735-123.546 1.924-45.407 20.695-88.126 52.855-120.287s74.879-50.932 120.288-52.855c45.136-1.912 89.011 12.91 123.546 41.736a7.5 7.5 0 0 0 9.612-11.516zM406.633 130.553a7.5 7.5 0 0 0-11.516 9.612c28.826 34.535 43.648 78.412 41.736 123.546-1.923 45.408-20.695 88.127-52.855 120.288s-74.879 50.931-120.287 52.855c-45.136 1.915-89.011-12.909-123.545-41.734a7.5 7.5 0 0 0-9.612 11.515c35.26 29.431 79.5 45.384 125.394 45.384 2.793 0 5.595-.059 8.399-.178 49.173-2.083 95.433-22.41 130.258-57.235 34.826-34.826 55.152-81.086 57.235-130.259 2.071-48.873-13.984-96.388-45.207-133.794z"/><path fill="#d26a22" d="m412.782 244.637-145.42-145.42a15.964 15.964 0 0 0-11.363-4.707 15.96 15.96 0 0 0-11.362 4.707l-145.42 145.42c-6.265 6.265-6.265 16.459 0 22.725l145.42 145.42c3.035 3.035 7.071 4.707 11.363 4.707s8.328-1.672 11.362-4.707l145.42-145.42c6.265-6.265 6.265-16.459 0-22.725zm-302.958 12.119a1.049 1.049 0 0 1-.313-.756c0-.202.054-.497.313-.756l67.407-67.407 43.553 43.553c-15.537.292-30.197 7.764-39.364 20.148a7.5 7.5 0 0 0 0 8.924c9.167 12.384 23.827 19.856 39.364 20.148l-43.553 43.553-67.407-67.407zm111.901-10.394c9.119 0 17.842 3.525 24.294 9.638-6.451 6.113-15.175 9.638-24.294 9.638s-17.843-3.524-24.294-9.638c6.451-6.113 15.175-9.638 24.294-9.638zm35.031 155.814a1.05 1.05 0 0 1-.755.313 1.05 1.05 0 0 1-.755-.313l-67.409-67.407L256 266.606l68.163 68.163-67.407 67.407zM265.981 256c6.451-6.113 15.175-9.638 24.294-9.638s17.843 3.524 24.294 9.638c-6.451 6.113-15.175 9.638-24.294 9.638s-17.842-3.525-24.294-9.638zm136.195.756-67.407 67.407-43.553-43.553c15.537-.292 30.197-7.764 39.364-20.148a7.5 7.5 0 0 0 0-8.924c-9.167-12.384-23.827-19.856-39.364-20.148l11.682-11.682a7.5 7.5 0 0 0 0-10.606 7.5 7.5 0 0 0-10.606 0L256 245.394l-68.163-68.163 67.408-67.407c.258-.258.553-.313.755-.313s.497.055.756.313l67.407 67.407-9.466 9.466a7.5 7.5 0 0 0 0 10.606c1.464 1.465 3.384 2.197 5.303 2.197s3.839-.732 5.303-2.197l9.466-9.466 67.407 67.407c.259.259.313.554.313.756 0 .202-.054.497-.313.756z"/></svg>