<svg xmlns="http://www.w3.org/2000/svg" viewBox="0 0 512 512"><defs><style>.a{fill:#27300f}</style></defs><path class="a" d="M352 0H160A160 160 0 0 0 0 160v192a160 160 0 0 0 160 160h192a160 160 0 0 0 160-160V160A160 160 0 0 0 352 0Zm112 352a112.12 112.12 0 0 1-112 112H160A112.12 112.12 0 0 1 48 352V160A112.12 112.12 0 0 1 160 48h192a112.12 112.12 0 0 1 112 112Z"/><path class="a" d="M256 128a128 128 0 1 0 128 128 128 128 0 0 0-128-128Zm0 208a80 80 0 1 1 80-80 80.11 80.11 0 0 1-80 80Z"/><circle class="a" cx="393.6" cy="118.4" r="17.06"/></svg>