<svg height="512pt" viewBox="0 -41 512.001 512" width="512pt" xmlns="http://www.w3.org/2000/svg"><path fill="#d26a22" d="M342.73 153.016c-3.562-25.996-36.316-34.887-53.02-14.594l-41.82 50.484c-11.327 1.067-24.425-3.508-36.202 7.7a22.698 22.698 0 0 0-15.297-5.915H168.6c-11.312 0-20.511 9.2-20.511 20.512v99.613c0 11.313 9.2 20.512 20.512 20.512h27.789c5.195 0 9.984-1.75 13.824-4.687 5.105 5.648 12.484 9.207 20.683 9.207h82.875c27.649 0 50.141-22.493 50.141-50.137v-53.797c0-22.172-16.867-40.48-38.445-42.766l10.75-13.043c5.27-6.406 7.644-14.824 6.511-23.09zM203.012 308.543c0 3.648-2.973 6.617-6.621 6.617H168.6a4.347 4.347 0 0 1-4.343-4.344v-99.613a4.347 4.347 0 0 1 4.344-4.344h27.789c3.648 0 6.62 2.97 6.62 6.618zm107.023-126.09c-7.285 9.102-.82 22.621 10.867 22.621 14.801 0 26.84 12.04 26.84 26.84v53.793c0 18.73-15.238 33.969-33.969 33.969h-82.878c-6.461 0-11.72-5.254-11.72-11.715v-91.168c0-6.465 5.259-11.719 11.72-11.719h18.05c4.176 0 8.094-1.851 10.735-5.054l42.5-51.305c7.765-9.438 22.875-5.602 24.535 6.496 1.156 8.473-4.004 11.398-16.68 27.242zm0 0"/><path fill="#d26a22" d="M124.336 141.012c31.488-23.414 67.914-37.672 106.516-41.836C360.043 85.14 467.738 180.898 475.594 302.41a7.587 7.587 0 0 0 7.558 7.094c.16 0 .325-.008.496-.02 4.172-.273 7.344-3.87 7.07-8.054-7.445-115.145-97.534-206.086-209.57-217.48V58.507h4.133c16.14 0 29.254-13.13 29.254-29.254C314.535 13.125 301.422 0 285.281 0H226.72c-16.14 0-29.254 13.125-29.254 29.254 0 16.125 13.113 29.254 29.254 29.254h4.133v25.43c-41.887 4.226-81.434 19.535-115.567 44.906-3.355 2.496-4.055 7.246-1.558 10.61 2.496 3.355 7.246 4.054 10.609 1.558zM265.992 82.91c-5.86-.246-14.238-.23-19.984-.012v-24.39h19.984zM226.72 43.348c-7.774 0-14.098-6.325-14.098-14.094 0-7.77 6.324-14.098 14.098-14.098h58.562c7.774 0 14.098 6.328 14.098 14.098 0 7.77-6.324 14.094-14.098 14.094H226.72zM491.215 360.727v-28.508a7.58 7.58 0 0 0-7.578-7.578 7.573 7.573 0 0 0-7.578 7.578v25.207H35.94V316.73c0-59.515 23.485-115.171 66.114-156.722a7.59 7.59 0 0 0 .133-10.723 7.576 7.576 0 0 0-10.711-.129C45.895 193.574 20.785 253.09 20.785 316.73v43.997C8.527 366.407 0 378.82 0 393.19v.91c0 19.72 16.043 35.762 35.762 35.762H58.52c4.187 0 7.578-3.39 7.578-7.578s-3.391-7.578-7.578-7.578H35.762c-11.36 0-20.606-9.242-20.606-20.605v-.91c0-11.344 9.219-20.575 20.555-20.606h440.578c11.34.031 20.555 9.262 20.555 20.605v.91c0 11.36-9.246 20.606-20.606 20.606H88.836c-4.188 0-7.578 3.39-7.578 7.578s3.39 7.578 7.578 7.578h387.402c19.719 0 35.762-16.043 35.762-35.761v-.91c0-14.372-8.527-26.786-20.785-32.465zm0 0"/></svg>